# xmcd
#
# Track frame offsets: 
#        150
#        62690
#        92672
#
# Disc length: 2211 seconds
#
# Revision: 1
# Processed by: cddbd v1.5.2PL0 Copyright (c) Steve Scherf et al.
# Submitted via: ExactAudioCopyFreeDBPlugin 1.0
#
DISCID=1d08a103
DTITLE=John Coltrane - Coltrane "LIVE" at The VillageVanguard
DYEAR=1961
DGENRE=Jazz
TTITLE0=Spiritual
TTITLE1=Softry,asin aMorning Sunrise
TTITLE2=Chasin' the Trane
EXTD=YEAR: 1961
EXTT0=
EXTT1=
EXTT2=
PLAYORDER=
